<?xml version="1.0" encoding="utf-8"?>
<!-- Svg Vector Icons : http://www.onlinewebfonts.com/icon -->
<!DOCTYPE svg PUBLIC "-//W3C//DTD SVG 1.1//EN" "http://www.w3.org/Graphics/SVG/1.1/DTD/svg11.dtd">
<svg version="1.1" xmlns="http://www.w3.org/2000/svg" xmlns:xlink="http://www.w3.org/1999/xlink" x="0px" y="0px" viewBox="0 0 1000 1000" enable-background="new 0 0 1000 1000" xml:space="preserve">
<metadata> Svg Vector Icons : http://www.onlinewebfonts.com/icon </metadata>
<g><path d="M308.9,582.7c30.9-22.9,63.9-41.2,99.2-54.9s68.8-24,100.5-31.1c31.7-7.1,59.5-11.9,83.3-14.5c23.8-2.6,40.1-4.4,48.9-5.3l-76.7-202.3c-3.5-8.8-7.9-16.8-13.2-23.8c-5.3-6.2-12.1-11.7-20.5-16.5c-8.4-4.8-18.7-7.3-31.1-7.3c-12.3,0-22.5,2.4-30.4,7.3c-7.9,4.8-14.5,10.4-19.8,16.5c-6.2,7.1-11,15-14.5,23.8L308.9,582.7z M822,949L691.1,610.4c-5.3,0-18.3,0.4-39,1.3c-20.7,0.9-46.3,4.4-76.7,10.6s-64.1,16.1-101.2,29.8c-37,13.7-74.3,33.1-111.8,58.2c-37.5,25.1-73.4,57.1-107.8,95.9c-34.4,38.8-64.4,86.4-89.9,142.8H10l298.9-748.6c10.6-27.3,24.7-52,42.3-74.1c15-18.5,34.6-35.7,58.9-51.6c24.2-15.9,54-23.8,89.3-23.8c35.3,0,65.2,7.9,89.9,23.8c24.7,15.9,44.5,33.1,59.5,51.6c17.6,22,31.7,46.7,42.3,74.1L990,949H822L822,949z"/></g>
</svg>