<?xml version="1.0" encoding="utf-8"?>
<!-- Svg Vector Icons : http://www.onlinewebfonts.com/icon -->
<!DOCTYPE svg PUBLIC "-//W3C//DTD SVG 1.1//EN" "http://www.w3.org/Graphics/SVG/1.1/DTD/svg11.dtd">
<svg version="1.1" xmlns="http://www.w3.org/2000/svg" xmlns:xlink="http://www.w3.org/1999/xlink" x="0px" y="0px" viewBox="0 0 1000 1000" enable-background="new 0 0 1000 1000" xml:space="preserve">
<metadata> Svg Vector Icons : http://www.onlinewebfonts.com/icon </metadata>
<g><path d="M806.3,255H193.8c-16.9,0-30.6-13.7-30.6-30.6s13.7-30.6,30.6-30.6h612.5c16.9,0,30.6,13.7,30.6,30.6S823.2,255,806.3,255L806.3,255z M775.6,867.5c0,33.8-27.4,61.3-61.3,61.3H285.6c-33.8,0-61.3-27.4-61.3-61.3V316.3h551.3V867.5L775.6,867.5z M408.1,101.9c0-16.9,13.7-30.6,30.6-30.6h122.5c16.9,0,30.6,13.7,30.6,30.6v30.6H408.1V101.9L408.1,101.9z M836.9,132.5H653.1V71.3c0-33.8-27.4-61.3-61.3-61.3H408.1c-33.8,0-61.3,27.4-61.3,61.3v61.3H163.1c-33.8,0-61.3,27.4-61.3,61.3V255c0,33.8,27.4,61.3,61.3,61.3v551.3c0,67.6,54.9,122.5,122.5,122.5h428.8c67.6,0,122.5-54.9,122.5-122.5V316.3c33.8,0,61.3-27.4,61.3-61.3v-61.2C898.1,159.9,870.7,132.5,836.9,132.5L836.9,132.5z M500,867.5c16.9,0,30.6-13.7,30.6-30.6V469.4c0-16.9-13.7-30.6-30.6-30.6c-16.9,0-30.6,13.7-30.6,30.6v367.5C469.4,853.8,483.1,867.5,500,867.5L500,867.5z M346.9,867.5c16.9,0,30.6-13.7,30.6-30.6V469.4c0-16.9-13.7-30.6-30.6-30.6c-16.9,0-30.6,13.7-30.6,30.6v367.5C316.3,853.8,330,867.5,346.9,867.5L346.9,867.5z M653.1,867.5c16.9,0,30.6-13.7,30.6-30.6V469.4c0-16.9-13.7-30.6-30.6-30.6s-30.6,13.7-30.6,30.6v367.5C622.5,853.8,636.2,867.5,653.1,867.5L653.1,867.5z"/></g>
</svg>