<svg id="svg_2px" data-name="svg 2px" xmlns="http://www.w3.org/2000/svg" viewBox="0 0 96 96"><defs><style>.cls-1{fill:#00008f;}</style></defs><title>document</title><path class="cls-1" d="M76.92,22.38a1,1,0,0,0-.22-.32h0l-14-13.76h0l-.07,0A.8.8,0,0,0,62.09,8L62,8H22.33A3.32,3.32,0,0,0,19,11.29V84.71A3.32,3.32,0,0,0,22.33,88H73.67A3.32,3.32,0,0,0,77,84.71V22.76h0A1,1,0,0,0,76.92,22.38ZM63,11.39,73.56,21.76H64.33A1.31,1.31,0,0,1,63,20.47ZM75,84.71A1.31,1.31,0,0,1,73.67,86H22.33A1.31,1.31,0,0,1,21,84.71V11.29A1.31,1.31,0,0,1,22.33,10H61V20.47a3.32,3.32,0,0,0,3.33,3.29H75Z"/><path class="cls-1" d="M29.33,20.32H45.67a1,1,0,0,0,0-2H29.33a1,1,0,0,0,0,2Z"/><path class="cls-1" d="M29.33,27.21h9.33a1,1,0,0,0,0-2H29.33a1,1,0,0,0,0,2Z"/><path class="cls-1" d="M28.33,42.26a1,1,0,0,0,1,1H66.67a1,1,0,0,0,0-2H29.33A1,1,0,0,0,28.33,42.26Z"/><path class="cls-1" d="M66.67,48.15H29.33a1,1,0,1,0,0,2H66.67a1,1,0,0,0,0-2Z"/><path class="cls-1" d="M66.67,55H29.33a1,1,0,0,0,0,2H66.67a1,1,0,0,0,0-2Z"/><path class="cls-1" d="M48,61.91H29.33a1,1,0,0,0,0,2H48a1,1,0,0,0,0-2Z"/></svg>