<?xml version="1.0" encoding="utf-8"?>
<!-- Svg Vector Icons : http://www.onlinewebfonts.com/icon -->
<!DOCTYPE svg PUBLIC "-//W3C//DTD SVG 1.1//EN" "http://www.w3.org/Graphics/SVG/1.1/DTD/svg11.dtd">
<svg version="1.1" xmlns="http://www.w3.org/2000/svg" xmlns:xlink="http://www.w3.org/1999/xlink" x="0px" y="0px" viewBox="0 0 1000 1000" enable-background="new 0 0 1000 1000" xml:space="preserve">
<metadata> Svg Vector Icons : http://www.onlinewebfonts.com/icon </metadata>
<g><path d="M853.8,236.8L695.6,39.4c0,0-19.4-29.4-61.4-29.4H285.4c-83.9,0-152.1,68.2-152.1,152.1v675.8c0,83.9,68.2,152.1,152.1,152.1h429.3c83.9,0,152.1-68.2,152.1-152.1v-535C866.7,246.4,853.8,236.8,853.8,236.8z M808.8,837.9c0,51.9-42.2,94.2-94.2,94.2H285.4c-51.9,0-94.2-42.2-94.2-94.2V162.1c0-51.9,42.2-94.2,94.2-94.2c0,0,227,0,246.3,0s31.7,21.6,31.7,35.2c0,13.5,0,168.1,0,168.1c0,33.9,27.7,61.6,61.6,61.6c0,0,132.6,0,153.8,0c21.2,0,30,18.4,30,29.1C808.8,372.4,808.8,837.9,808.8,837.9z"/><path d="M712.5,419.3H272.6c-12.2,0-22.3,10-22.3,22.3v13.4c0,12.2,10,22.3,22.3,22.3h439.9c12.2,0,22.3-10,22.3-22.3v-13.4C734.7,429.3,724.7,419.3,712.5,419.3z"/><path d="M711.9,723.3H273.3c-12.6,0.2-22.9,10.5-22.9,23.1v12.2c0,12.6,10.3,22.9,22.9,22.9h438.6c12.6,0,22.9-10.3,22.9-22.9v-12.2C734.7,733.9,724.4,723.6,711.9,723.3z"/><path d="M273.3,629.5h356.6c12.6,0,22.9-10.3,22.9-22.9v-12.2c0-12.6-10.3-22.9-22.9-23.1H273.3c-12.6,0.2-22.9,10.5-22.9,23.1v12.2C250.4,619.2,260.7,629.5,273.3,629.5z"/></g>
</svg>