<?xml version="1.0" encoding="utf-8"?>
<!-- Svg Vector Icons : http://www.onlinewebfonts.com/icon -->
<!DOCTYPE svg PUBLIC "-//W3C//DTD SVG 1.1//EN" "http://www.w3.org/Graphics/SVG/1.1/DTD/svg11.dtd">
<svg version="1.1" xmlns="http://www.w3.org/2000/svg" xmlns:xlink="http://www.w3.org/1999/xlink" x="0px" y="0px" viewBox="0 0 1000 1000" enable-background="new 0 0 1000 1000" xml:space="preserve">
<metadata> Svg Vector Icons : http://www.onlinewebfonts.com/icon </metadata>
<g><path d="M975.2,391.6l-56.3,55.1L764.5,293.6l56.3-55.1c17.1-17.1,44.1-19.6,58.8-4.9l101.7,99.2C994.8,347.5,992.4,374.4,975.2,391.6L975.2,391.6L975.2,391.6z M737.6,319.3l155.6,151.9l-369.9,365c-1.2,1.2-6.1,6.1-13.5,7.3c-1.2,0-1.2,0-2.4,1.2l-193.5,60c-4.9,1.2-11,1.2-14.7-2.5c-3.7-3.7-4.9-8.6-2.4-14.7l61.2-189.9c0-1.2,0-1.2,1.2-2.5c1.2-6.1,6.1-13.5,8.6-14.7l71-64.9H203.5c-9.8,0-18.4-11-18.4-19.6c0-9.8,8.6-20.8,18.4-20.8h271.9L737.6,319.3L737.6,319.3z M475.5,824l-95.5-94.3l-25.7,79.6l40.4,40.4L475.5,824L475.5,824z M732.7,379.3c-4.9-4.9-14.7-4.9-19.6,0L422.8,663.5c-6.1,4.9-6.1,14.7,0,19.6c4.9,4.9,14.7,4.9,19.6,0l289.1-284.2C737.6,394,737.6,385.5,732.7,379.3L732.7,379.3L732.7,379.3z M87.2,934.2c-9.8,0-19.6-3.7-19.6-13.5V146.6c-1.2-18.4,11-14.7,24.5-14.7h67.4v25.7c0,9.8,11,18.4,22,18.4c9.8,0,22-8.6,22-18.4v-25.7H304v25.7c0,9.8,11,18.4,22,18.4c9.8,0,22-8.6,22-18.4v-25.7h91.9v25.7c0,9.8,11,18.4,22,18.4c9.8,0,22-8.6,22-18.4v-25.7h91.9v25.7c0,9.8,11,18.4,22,18.4c9.8,0,22-8.6,22-18.4v-25.7h77.2c9.8,0,15.9,4.9,15.9,14.7V274l56.3-55.1v-72.3c0-40.4-30.6-69.8-72.3-69.8h-78.4V29c0-9.8-11-18.4-22-18.4c-9.8,0-22,8.6-22,18.4v47.8h-91.9V29c0-9.8-11-18.4-22-18.4c-9.8,0-22,8.6-22,18.4v47.8h-91.9V29c0-9.8-11-18.4-22-18.4c-9.8,0-22,8.6-22,18.4v47.8H202.3V29c0-9.8-11-18.4-22-18.4c-9.8,0-22,8.6-22,18.4v47.8H92.1c-55.1,0-82.1,29.4-82.1,69.8v772.9c0,40.4,36.7,69.8,78.4,69.8h607.6c41.6,0,72.3-29.4,72.3-69.8v-267l-56.3,55.1v213.1c0,9.8-6.1,13.5-15.9,13.5 M568.6,286.3H202.3c-9.8,0-17.1,12.2-17.1,20.8c0,9.8,7.4,20.8,17.1,20.8h366.2c9.8,0,17.2-12.2,17.2-20.8C585.7,298.5,578.4,286.3,568.6,286.3L568.6,286.3L568.6,286.3z M568.6,427.1H202.3c-9.8,0-17.1,12.2-17.1,20.8c0,9.8,7.4,20.8,17.1,20.8h366.2c9.8,0,17.2-12.2,17.2-20.8S578.4,427.1,568.6,427.1L568.6,427.1L568.6,427.1z"/></g>
</svg>