<?xml version="1.0" encoding="utf-8"?>
<!-- Svg Vector Icons : http://www.onlinewebfonts.com/icon -->
<!DOCTYPE svg PUBLIC "-//W3C//DTD SVG 1.1//EN" "http://www.w3.org/Graphics/SVG/1.1/DTD/svg11.dtd">
<svg version="1.1" xmlns="http://www.w3.org/2000/svg" xmlns:xlink="http://www.w3.org/1999/xlink" x="0px" y="0px" viewBox="0 0 1000 1000" enable-background="new 0 0 1000 1000" xml:space="preserve">
<metadata> Svg Vector Icons : http://www.onlinewebfonts.com/icon </metadata>
<g><path d="M10,622.5c40.3,40.7,80.7,81.5,121.1,122.3c62-62.1,122.8-122.9,182.8-183.1c41.8,41.7,82.3,82.2,123.6,123.4C377.4,745,316.2,805.8,254.6,867.2c41.8,41.8,82.4,82.3,122.9,122.8c-122.5,0-245,0-367.5,0C10,867.5,10,745,10,622.5z M10,10c0,122.8,0,245.2,0,367.5c40.6-40.5,81.1-81,123.1-122.9c61.1,61.6,121.9,122.8,181.6,183c41.3-41.4,81.7-82,123.4-123.9c-60-59.9-120.8-120.6-183-182.6C296,90.7,336.7,50.4,377.5,10C255,10,132.5,10,10,10z M990,990c0-121.9,0-243.7,0-365.6c-2.7,2.1-5.6,3.9-8,6.3c-35.6,35.6-71.1,71.3-106.7,106.9c-2.4,2.4-4.9,4.6-9.6,9c-61.1-61.7-121.8-123-181.2-183c-40.7,40.5-81,80.6-122.7,122.1c60.6,60.4,121.6,121.2,182.7,182.2c-38.3,38.3-76.1,76.2-113.9,114.2c-2.4,2.4-4.2,5.3-6.3,8C746.3,990,868.1,990,990,990z M990,10c-121.9,0-243.7,0-365.6,0c2.1,2.7,3.9,5.6,6.3,8c37.7,38.1,75.4,76.1,114.4,115.4C684.2,193.8,623,254.6,563,314c41.4,41.5,81.7,82.1,123.4,123.9c60.2-60.1,121-120.9,183.1-182.9c2.4,3,4.7,6.5,7.7,9.4c34.9,35,69.8,70,104.8,104.9c2.4,2.4,5.3,4.2,8,6.3C990,253.7,990,131.9,990,10z"/></g>
</svg>