<?xml version="1.0" encoding="utf-8"?>
<!-- Svg Vector Icons : http://www.onlinewebfonts.com/icon -->
<!DOCTYPE svg PUBLIC "-//W3C//DTD SVG 1.1//EN" "http://www.w3.org/Graphics/SVG/1.1/DTD/svg11.dtd">
<svg version="1.1" xmlns="http://www.w3.org/2000/svg" xmlns:xlink="http://www.w3.org/1999/xlink" x="0px" y="0px" viewBox="0 0 1000 1000" enable-background="new 0 0 1000 1000" xml:space="preserve">
<metadata> Svg Vector Icons : http://www.onlinewebfonts.com/icon </metadata>
<g><path d="M656.1,375.5l18.4-0.4l1-0.2l262.5,1.6c20.3-0.4,37.1-17.4,37.6-37.8l0-26c-3.1-24.1-21.9-38.2-42.2-37.7l-137.5-0.5L975.3,96.4c19.6-19.8,19.6-51.8,0-71.5c-19.6-19.8-51.5-19.8-71.2,0l-181,178.6l1.1-143.9c0.5-20.4-15.7-38.1-36-37.7h-27.4c-20.4,0.5-37.2,12.7-37.6,33.1l-1,264.6c0,0.4,1.4,0.7,1.4,1l-2,18.5c-0.2,10.2,2.2,19.4,8.8,26C636.9,371.8,646,375.8,656.1,375.5z"/><path d="M376.4,320.6c0-0.3,1.4-0.6,1.4-1l-1-264.6c-0.4-20.4-17.3-32.6-37.6-33.1h-27.4c-20.3-0.4-36.5,17.3-36,37.7l1.1,143.9L95.9,24.8c-19.7-19.8-51.5-19.8-71.2,0c-19.6,19.8-19.6,51.7,0,71.5l179.3,178.1L66.5,275c-20.3-0.5-39.2,13.6-42.2,37.7v26c0.5,20.4,17.3,37.3,37.6,37.8l262.5-1.6l1,0.2l18.4,0.4c10.1,0.2,19.3-3.8,25.7-10.4c6.6-6.6,9-15.7,8.8-26L376.4,320.6z"/><path d="M343.9,624.5l-18.4,0.4l-1,0.2l-262.5-1.6c-20.3,0.5-37.1,17.4-37.6,37.8v26c3.1,24.1,21.9,38.2,42.2,37.7l137.5,0.6L24.7,903.6c-19.6,19.8-19.6,51.8,0,71.5c19.6,19.8,51.5,19.8,71.2,0l181-178.6l-1.1,143.9c-0.5,20.4,15.7,38.1,36,37.7h27.4c20.4-0.4,37.2-12.7,37.6-33.1l1-264.6c0-0.4-1.4-0.7-1.4-1l2-18.5c0.2-10.2-2.2-19.4-8.8-26C363.1,628.2,354,624.2,343.9,624.5z"/><path d="M795.9,725.5l137.5-0.6c20.3,0.5,39.2-13.6,42.2-37.7v-26c-0.5-20.4-17.3-37.3-37.6-37.8l-262.5,1.6l-1-0.2l-18.4-0.4c-10.1-0.2-19.3,3.8-25.7,10.4c-6.6,6.6-9,15.7-8.8,26l2,18.5c0,0.3-1.4,0.6-1.4,1l1,264.6c0.4,20.4,17.3,32.6,37.6,33.1h27.4c20.3,0.5,36.5-17.3,36-37.7l-1.1-143.9l181,178.6c19.7,19.8,51.5,19.8,71.2,0c19.6-19.8,19.6-51.7,0-71.5L795.9,725.5z"/></g>
</svg>