<svg id="white_svg_1px" xmlns="http://www.w3.org/2000/svg" viewBox="0 0 96 96"><defs><style>.cls-1{fill:#fff;}</style></defs><title>shield</title><path class="cls-1" d="M82,18.78c-11.27,0-20.4-1.51-33.75-9.21a.5.5,0,0,0-.5,0C34.4,17.27,25.27,18.78,14,18.78a.5.5,0,0,0-.5.5V36.67C13.5,74.3,43.27,90.5,48,90.5S82.5,74.3,82.5,36.67V19.28A.5.5,0,0,0,82,18.78Zm-.5,17.89C81.5,73.6,52.59,89.5,48,89.5S14.5,73.6,14.5,36.67V19.77c11.14,0,20.29-1.62,33.5-9.2,13.21,7.58,22.36,9.15,33.5,9.2Z"/><path class="cls-1" d="M47.77,18.83a65.85,65.85,0,0,1-25.61,7.74.5.5,0,0,0-.46.5v9.6a54.46,54.46,0,0,0,3.47,19.51.49.49,0,0,0,.07.26l0,0a50.55,50.55,0,0,0,5.44,10.33.48.48,0,0,0,0,.13.48.48,0,0,0,.11.11c5.85,8.43,13,13.32,16.9,15a.5.5,0,0,0,.4,0c7.26-3.18,26.09-17.54,26.09-45.4v-9.6a.5.5,0,0,0-.46-.5,65.85,65.85,0,0,1-25.61-7.74A.49.49,0,0,0,47.77,18.83Zm25.52,8.69v9.14c0,1.26-.05,2.48-.13,3.68L31.38,66a49.49,49.49,0,0,1-5.07-9.63l47-28.84ZM48,81.06c-3.77-1.71-10.48-6.36-16-14.24L73.09,41.56C71.09,65.44,54.78,78,48,81.06ZM71.69,27.34,26,55.41a53.65,53.65,0,0,1-3.25-18.74V27.53A66.72,66.72,0,0,0,48,19.84,67.1,67.1,0,0,0,71.69,27.34Z"/></svg>