<?xml version="1.0" encoding="utf-8"?>
<!-- Svg Vector Icons : http://www.onlinewebfonts.com/icon -->
<!DOCTYPE svg PUBLIC "-//W3C//DTD SVG 1.1//EN" "http://www.w3.org/Graphics/SVG/1.1/DTD/svg11.dtd">
<svg version="1.1" xmlns="http://www.w3.org/2000/svg" xmlns:xlink="http://www.w3.org/1999/xlink" x="0px" y="0px" viewBox="0 0 1000 1000" enable-background="new 0 0 1000 1000" xml:space="preserve">
<metadata> Svg Vector Icons : http://www.onlinewebfonts.com/icon </metadata>
<g><g><path d="M901.6,84.6H98.4C49.6,84.6,10,124.2,10,173V827c0,48.7,39.6,88.4,88.4,88.4h803.3c48.7,0,88.4-39.6,88.4-88.4V173C990,124.2,950.4,84.6,901.6,84.6z M825,175.2c33.2,0,60.1,26.9,60.1,60.1c0,33.2-26.9,60.1-60.1,60.1c-33.2,0-60.1-26.9-60.1-60.1C764.9,202.1,791.8,175.2,825,175.2z M653.5,175.2c33.2,0,60.1,26.9,60.1,60.1c0,33.2-26.9,60.1-60.1,60.1c-33.2,0-60.1-26.9-60.1-60.1C593.4,202.1,620.3,175.2,653.5,175.2z M890.5,815.9h-781V384.3h781V815.9L890.5,815.9z"/></g><g></g><g></g><g></g><g></g><g></g><g></g><g></g><g></g><g></g><g></g><g></g><g></g><g></g><g></g><g></g></g>
</svg>