<?xml version="1.0" encoding="utf-8"?>
<!-- Svg Vector Icons : http://www.onlinewebfonts.com/icon -->
<!DOCTYPE svg PUBLIC "-//W3C//DTD SVG 1.1//EN" "http://www.w3.org/Graphics/SVG/1.1/DTD/svg11.dtd">
<svg version="1.1" xmlns="http://www.w3.org/2000/svg" xmlns:xlink="http://www.w3.org/1999/xlink" x="0px" y="0px" viewBox="0 0 1000 1000" enable-background="new 0 0 1000 1000" xml:space="preserve">
<metadata> Svg Vector Icons : http://www.onlinewebfonts.com/icon </metadata>
<g><g><path d="M920,80H80.2C41.3,80,10,111.3,10,150.1V850c0,38.6,31.3,70,70.2,70H920c38.5,0,70-31.4,70-70V150.1C990,111.3,958.6,80,920,80z M344.7,132.6c19.2,0,35,15.7,35,35c0,19.3-15.7,35-35,35c-19.3,0-35-15.7-35-35C309.8,148.2,325.4,132.6,344.7,132.6z M237.6,132.6c19.2,0,35,15.7,35,35c0,19.3-15.7,35-35,35c-19.4,0-35.1-15.7-35.1-35C202.5,148.2,218.2,132.6,237.6,132.6z M132.5,132.6c19.4,0,35,15.7,35,35c0,19.3-15.6,35-35,35c-19.3,0-35-15.7-35-35C97.6,148.2,113.2,132.6,132.5,132.6z M920,850H80.2V255.8H920V850z"/><rect x="188.1" y="410.6" width="133" height="45"/><rect x="387.5" y="410.6" width="424.5" height="45"/><rect x="188.1" y="522.6" width="133" height="45.1"/><rect x="188.1" y="628.5" width="133" height="45.1"/><rect x="387.5" y="522.6" width="424.5" height="45.1"/><rect x="387.5" y="628.5" width="424.5" height="45.1"/><g></g><g></g><g></g><g></g><g></g><g></g><g></g><g></g><g></g><g></g><g></g><g></g><g></g><g></g><g></g></g><g></g><g></g><g></g><g></g><g></g><g></g><g></g><g></g><g></g><g></g><g></g><g></g><g></g><g></g><g></g></g>
</svg>